HIERARCHY
ROOT SpineBase
{
  OFFSET 0.000000 0.000000 0.000000
  CHANNELS 6 Xposition Yposition Zposition Zrotation Xrotation Yrotation
  JOINT SpineMid
  {
    OFFSET -0.000000 28.685918 0.000000
    CHANNELS 3 Zrotation Xrotation Yrotation
    JOINT SpineShoulder
    {
      OFFSET -0.119265 21.293336 -0.781895
      CHANNELS 3 Zrotation Xrotation Yrotation
      JOINT Neck
      {
        OFFSET -0.081201 7.047017 -0.583201
        CHANNELS 3 Zrotation Xrotation Yrotation
        JOINT Head
        {
          OFFSET -2.407226 11.898387 -0.960509
          CHANNELS 3 Zrotation Xrotation Yrotation
          End Site
          {
            OFFSET 0 0 0
          }
        }
      }
      JOINT ShoulderLeft
      {
        OFFSET -16.031430 -2.010444 5.481838
        CHANNELS 3 Zrotation Xrotation Yrotation
        JOINT ElbowLeft
        {
          OFFSET -4.406343 -25.106505 2.861382
          CHANNELS 3 Zrotation Xrotation Yrotation
          JOINT WristLeft
          {
            OFFSET -4.371334 -20.275791 -2.793306
            CHANNELS 3 Zrotation Xrotation Yrotation
            JOINT HandLeft
            {
              OFFSET 1.190785 -5.547318 -3.281605
              CHANNELS 3 Zrotation Xrotation Yrotation
              JOINT HandTipLeft
              {
                OFFSET 0.315411 -5.597766 -2.413729
                CHANNELS 3 Zrotation Xrotation Yrotation
                End Site
                {
                  OFFSET 0 0 0
                }
              }
              JOINT ThumbLeft
              {
                OFFSET 4.019585 0.540618 -5.118804
                CHANNELS 3 Zrotation Xrotation Yrotation
                End Site
                {
                  OFFSET 0 0 0
                }
              }
            }
          }
        }
      }
      JOINT ShoulderRight
      {
        OFFSET 14.972385 -1.994369 -5.851017
        CHANNELS 3 Zrotation Xrotation Yrotation
        JOINT ElbowRight
        {
          OFFSET 5.369205 -25.243421 -2.814992
          CHANNELS 3 Zrotation Xrotation Yrotation
          JOINT WristRight
          {
            OFFSET -0.934421 -22.199926 -5.392836
            CHANNELS 3 Zrotation Xrotation Yrotation
            JOINT HandRight
            {
              OFFSET -1.846890 -7.767565 -1.726574
              CHANNELS 3 Zrotation Xrotation Yrotation
              JOINT HandTipRight
              {
                OFFSET -0.176115 -7.068533 -0.783809
                CHANNELS 3 Zrotation Xrotation Yrotation
                End Site
                {
                  OFFSET 0 0 0
                }
              }
              JOINT ThumbRight
              {
                OFFSET -3.142793 1.215533 -0.644303
                CHANNELS 3 Zrotation Xrotation Yrotation
                End Site
                {
                  OFFSET 0 0 0
                }
              }
            }
          }
        }
      }
    }
  }
  JOINT HipLeft
  {
    OFFSET -7.226373 0.524844 -1.698119
    CHANNELS 3 Zrotation Xrotation Yrotation
    JOINT KneeLeft
    {
      OFFSET -6.039997 -33.545665 -4.606126
      CHANNELS 3 Zrotation Xrotation Yrotation
      JOINT AnkleLeft
      {
        OFFSET 2.573479 -36.952922 0.866657
        CHANNELS 3 Zrotation Xrotation Yrotation
        JOINT FootLeft
        {
          OFFSET -1.343081 -3.110531 -12.045660
          CHANNELS 3 Zrotation Xrotation Yrotation
          End Site
          {
            OFFSET 0 0 0
          }
        }
      }
    }
  }
  JOINT HipRight
  {
    OFFSET 6.488949 0.689707 -5.177974
    CHANNELS 3 Zrotation Xrotation Yrotation
    JOINT KneeRight
    {
      OFFSET 4.052525 -26.741073 1.157498
      CHANNELS 3 Zrotation Xrotation Yrotation
      JOINT AnkleRight
      {
        OFFSET 2.348848 -37.346099 10.669572
        CHANNELS 3 Zrotation Xrotation Yrotation
        JOINT FootRight
        {
          OFFSET -2.587276 -6.499319 -7.390153
          CHANNELS 3 Zrotation Xrotation Yrotation
          End Site
          {
            OFFSET 0 0 0
          }
        }
      }
    }
  }
}
MOTION
Frames: 12
Frame Time: 0.033333
44.720957 64.706986 383.649431 78.259120 -28.661866 11.141810 -4.174549 3.601808 13.263784 0.027857 -1.072065 3.873157 55.410595 16.425539 -44.348347 0.000000 0.000000 0.000000 -5.454287 41.591818 -20.630640 -1.839209 -42.379318 17.839077 -30.986741 10.042408 -8.651643 20.367363 57.567340 -20.913539 0.000000 0.000000 0.000000 0.000000 0.000000 0.000000 35.364591 20.050578 -52.318717 -71.806608 -26.659458 -6.081602 25.427585 -44.616382 33.886482 -64.859133 64.093613 38.056568 0.000000 0.000000 0.000000 0.000000 0.000000 0.000000 -102.983079 -5.799539 34.162800 97.002156 39.375634 -30.617306 -60.404997 -35.230747 -23.567943 0.000000 0.000000 0.000000 -161.111798 41.415107 83.588782 27.003480 -49.273324 6.392305 17.745770 -13.782762 -15.041616 0.000000 0.000000 0.000000
44.575278 65.734489 384.235281 79.895696 -29.504717 10.074545 -4.348487 3.607487 15.634807 -0.108781 -1.044202 3.952707 53.523719 17.015206 -44.830579 0.000000 0.000000 0.000000 -6.100583 43.348450 -21.344393 5.401303 -49.169268 27.663080 -34.363962 -7.599987 -10.698476 96.913373 75.924913 -103.659938 0.000000 0.000000 0.000000 0.000000 0.000000 0.000000 36.198818 20.896273 -54.558787 -71.666158 -27.930942 -6.633336 25.137978 -45.975951 36.067047 -57.673394 66.467887 32.193058 0.000000 0.000000 0.000000 0.000000 0.000000 0.000000 -103.717285 -6.444571 34.707576 96.423759 39.015694 -29.708530 -63.389153 -36.968572 -23.264104 0.000000 0.000000 0.000000 -160.981329 40.804861 82.468392 25.061179 -49.843773 5.178286 18.653020 -13.521862 -15.854672 0.000000 0.000000 0.000000
44.529719 66.327649 384.616997 80.755669 -29.910055 8.528360 -4.185567 3.234744 18.016623 -0.459189 -0.820532 3.945513 52.583882 17.579457 -45.397633 0.000000 0.000000 0.000000 -6.621817 44.874228 -21.926274 10.465512 -52.130382 33.503363 -35.826557 -12.211025 -11.283622 105.866562 56.908914 -117.809783 0.000000 0.000000 0.000000 0.000000 0.000000 0.000000 38.424339 21.124286 -57.202367 -73.874941 -30.378432 -7.897425 21.714289 -41.597675 30.514089 -58.799543 61.667483 32.229307 0.000000 0.000000 0.000000 0.000000 0.000000 0.000000 -104.176282 -7.738547 34.695763 98.346743 39.971269 -30.938437 -68.315003 -41.444793 -26.461988 0.000000 0.000000 0.000000 -160.785643 40.569654 81.528481 23.491118 -50.953199 4.197305 21.002178 -12.908943 -18.090850 0.000000 0.000000 0.000000
44.626105 66.359912 384.697966 80.488646 -29.715584 6.921526 -3.548584 2.475019 19.723394 -1.047130 -0.362416 3.827007 53.532479 17.129244 -45.749086 0.000000 0.000000 0.000000 -6.896456 45.762864 -22.197410 9.579717 -50.874349 31.196581 -34.399967 -13.828824 -12.732617 83.833301 40.633973 -97.710758 0.000000 0.000000 0.000000 0.000000 0.000000 0.000000 42.398152 20.463948 -60.226675 -77.753917 -32.425805 -10.457109 24.788928 -43.029944 32.647765 -59.281468 64.177596 32.417038 0.000000 0.000000 0.000000 0.000000 0.000000 0.000000 -104.267800 -9.173615 34.124261 102.783205 41.277805 -33.813446 -75.759056 -46.845048 -32.884095 0.000000 0.000000 0.000000 -160.467570 41.165129 81.340731 22.112363 -52.529865 3.337692 20.764214 -12.736557 -17.935880 0.000000 0.000000 0.000000
44.832543 65.805174 384.431489 79.139967 -28.918650 6.332248 -2.305027 1.427541 19.677814 -1.719513 0.196296 3.657416 55.350677 16.248171 -45.823696 0.000000 0.000000 0.000000 -6.834249 46.466015 -22.661233 7.074721 -50.911809 29.214228 -31.882523 -19.299012 -16.067944 84.077294 40.227102 -101.646034 0.000000 0.000000 0.000000 0.000000 0.000000 0.000000 45.653605 19.097570 -61.779456 -81.650532 -33.314976 -12.559456 28.101071 -44.382819 34.671347 -62.543711 64.545293 35.085221 0.000000 0.000000 0.000000 0.000000 0.000000 0.000000 -103.872175 -9.560086 33.271824 108.853339 42.597042 -37.853949 -85.210272 -51.648745 -42.443500 0.000000 0.000000 0.000000 -159.191943 42.274053 81.214327 21.885189 -53.179066 3.221393 17.978623 -12.476891 -15.668506 0.000000 0.000000 0.000000
44.935565 65.872074 384.503373 79.127652 -28.875725 5.544633 -2.053202 1.133428 20.594303 -1.833754 0.336568 3.613536 56.094776 16.241487 -46.576232 0.000000 0.000000 0.000000 -8.153552 46.623992 -21.732063 7.872845 -51.980189 30.503263 -29.014803 -25.749891 -23.583477 101.208840 54.240045 -126.617494 0.000000 0.000000 0.000000 0.000000 0.000000 0.000000 48.018394 18.568801 -63.764209 -84.483607 -34.193105 -14.573897 31.472125 -45.740825 37.145187 -68.546730 64.238577 40.373870 0.000000 0.000000 0.000000 0.000000 0.000000 0.000000 -104.080621 -10.266907 33.042903 114.670443 43.963405 -42.046268 -98.900650 -55.835551 -54.838338 0.000000 0.000000 0.000000 -159.672012 42.563034 81.669244 21.433335 -54.973801 3.018035 13.233995 -13.725672 -11.146552 0.000000 0.000000 0.000000
44.992190 65.903867 384.506978 79.183046 -28.829097 6.686745 -1.872262 1.004632 19.548639 -1.848347 0.391706 3.594518 55.748921 16.124753 -46.392263 0.000000 0.000000 0.000000 -6.312127 46.612435 -23.127366 5.352520 -51.598218 28.996396 -29.649328 -23.154646 -20.580715 91.390713 61.689562 -109.315108 0.000000 0.000000 0.000000 0.000000 0.000000 0.000000 49.457194 18.334940 -65.141224 -86.123768 -34.817322 -15.953712 33.437758 -46.711625 39.029847 -72.739926 66.586758 44.294558 0.000000 0.000000 0.000000 0.000000 0.000000 0.000000 -104.131880 -8.976022 33.275815 119.818431 45.080219 -46.017600 -117.705598 -59.065569 -72.023784 0.000000 0.000000 0.000000 -160.566566 42.912649 82.917413 22.078706 -55.737833 3.568049 3.589345 -20.793005 -0.263586 0.000000 0.000000 0.000000
45.049424 65.893020 384.520879 79.304905 -28.830164 7.943761 -1.888414 0.997047 18.389273 -1.747905 0.365135 3.586602 55.178419 16.125006 -46.106147 0.000000 0.000000 0.000000 -5.663925 46.474528 -23.546832 3.965508 -52.077694 28.841688 -33.331043 -20.556656 -14.105648 117.265007 46.311232 -134.188332 0.000000 0.000000 0.000000 0.000000 0.000000 0.000000 50.177115 18.229019 -65.923996 -87.045851 -35.215271 -16.722317 34.826633 -47.490533 40.560220 -78.075246 68.641600 49.460927 0.000000 0.000000 0.000000 0.000000 0.000000 0.000000 -104.217649 -7.586545 33.583615 123.561136 45.850850 -49.021359 -127.052620 -58.768015 -80.501511 0.000000 0.000000 0.000000 -161.619947 43.335686 84.415531 22.370178 -56.175062 3.880898 -12.307090 -27.224362 14.232539 0.000000 0.000000 0.000000
45.081215 65.952496 384.458961 79.313640 -28.778769 9.915298 -1.770529 0.976259 16.431297 -1.777242 0.400300 3.578388 55.329885 16.120908 -46.272636 0.000000 0.000000 0.000000 -3.707097 47.202270 -25.651033 3.252215 -54.419170 30.715385 -40.666423 -17.384662 -1.649526 89.427664 33.774514 -94.525686 0.000000 0.000000 0.000000 0.000000 0.000000 0.000000 49.863237 18.366841 -65.766691 -86.985866 -35.123824 -16.575898 35.807046 -47.928782 41.357515 -79.211580 68.494361 50.596648 0.000000 0.000000 0.000000 0.000000 0.000000 0.000000 -104.272894 -5.415426 34.025547 125.473554 46.326464 -50.540657 -126.411565 -57.641925 -79.904626 0.000000 0.000000 0.000000 -162.513794 44.004640 86.184987 22.274061 -55.879253 3.797078 -32.681053 -30.764833 28.838241 0.000000 0.000000 0.000000
45.127004 65.975893 384.463639 79.323431 -28.707517 11.007094 -1.656686 0.929308 15.329779 -1.832544 0.485895 3.545960 54.656143 15.913150 -45.549303 0.000000 0.000000 0.000000 -0.932556 47.463933 -28.135427 0.733425 -57.134752 31.980936 -54.327692 -5.024065 23.078105 61.835285 -1.476092 -53.333633 0.000000 0.000000 0.000000 0.000000 0.000000 0.000000 50.236388 18.374122 -66.117199 -87.318611 -35.560482 -16.986498 34.985906 -47.612178 40.723119 -80.051862 69.812327 51.444857 0.000000 0.000000 0.000000 0.000000 0.000000 0.000000 -104.371128 -4.192040 34.236967 131.591019 46.734319 -55.180382 -129.505694 -55.023519 -80.868737 0.000000 0.000000 0.000000 -162.992918 44.004222 86.779370 22.701452 -54.982905 3.957746 -50.087027 -28.721788 38.196858 0.000000 0.000000 0.000000
45.197005 66.057568 384.535422 79.269835 -28.682093 11.265851 -1.644004 0.851889 15.090096 -1.917510 0.576174 3.509419 55.154927 15.567002 -45.538106 0.000000 0.000000 0.000000 3.063934 47.358429 -31.302484 -3.956970 -60.575400 32.555772 -61.641259 2.610425 37.573759 38.346326 -21.699105 -38.036905 0.000000 0.000000 0.000000 0.000000 0.000000 0.000000 50.763875 18.440028 -66.512393 -87.395531 -36.252903 -17.340265 32.193144 -46.219682 38.155132 -77.794533 69.937749 49.265717 0.000000 0.000000 0.000000 0.000000 0.000000 0.000000 -104.572516 -3.811913 34.306365 132.108818 46.714768 -55.197658 -115.851121 -51.779451 -69.767689 0.000000 0.000000 0.000000 -162.868324 43.826932 86.579627 23.116473 -54.041837 4.212315 -64.916258 -19.400429 45.365008 0.000000 0.000000 0.000000
45.197108 65.756106 384.637586 78.487873 -28.718431 10.751155 -1.431307 0.736373 15.326596 -1.833722 0.588955 3.446466 56.727946 15.265745 -46.236418 0.000000 0.000000 0.000000 6.449193 47.404930 -34.058242 -6.847765 -63.699819 33.595194 -63.873389 6.269133 43.629700 25.759570 -25.232169 -33.573214 0.000000 0.000000 0.000000 0.000000 0.000000 0.000000 51.318654 18.573285 -66.751974 -87.256488 -36.974599 -17.564827 28.985581 -44.133942 34.824564 -72.727663 69.475103 44.262399 0.000000 0.000000 0.000000 0.000000 0.000000 0.000000 -104.161896 -3.794038 34.212811 128.956278 46.429548 -52.195209 -101.183430 -47.376828 -57.485276 0.000000 0.000000 0.000000 -162.556473 43.212413 86.272078 24.064989 -53.626511 4.679636 -70.764676 -5.755380 48.477551 0.000000 0.000000 0.000000
